<svg xmlns="http://www.w3.org/2000/svg" xmlns:xlink="http://www.w3.org/1999/xlink" width="150" zoomAndPan="magnify" viewBox="0 0 112.5 30.000001" height="40" preserveAspectRatio="xMidYMid meet" version="1.0"><defs><g/><clipPath id="a2086cfbfa"><path d="M 7.40625 8.128906 L 14 8.128906 L 14 21.253906 L 7.40625 21.253906 Z M 7.40625 8.128906 " clip-rule="nonzero"/></clipPath><clipPath id="87007fb252"><path d="M 11 8.128906 L 17 8.128906 L 17 19 L 11 19 Z M 11 8.128906 " clip-rule="nonzero"/></clipPath><clipPath id="78d0436303"><path d="M 14 12 L 19 12 L 19 21.253906 L 14 21.253906 Z M 14 12 " clip-rule="nonzero"/></clipPath><clipPath id="c9cd92f55d"><path d="M 16 12 L 23.445312 12 L 23.445312 21.253906 L 16 21.253906 Z M 16 12 " clip-rule="nonzero"/></clipPath></defs><g clip-path="url(#a2086cfbfa)"><path fill="#ffa31a" d="M 11.421875 8.4375 L 7.402344 21.253906 L 11.1875 21.253906 L 13.316406 14.472656 L 11.421875 8.4375 " fill-opacity="1" fill-rule="nonzero"/></g><g clip-path="url(#87007fb252)"><path fill="#153b70" d="M 16.734375 12.613281 L 15.328125 8.132812 L 11.542969 8.132812 L 14.839844 18.648438 L 16.734375 12.613281 " fill-opacity="1" fill-rule="nonzero"/></g><g clip-path="url(#78d0436303)"><path fill="#ffa31a" d="M 18.027344 21.253906 L 18.734375 18.996094 L 16.839844 12.960938 L 14.242188 21.253906 L 18.027344 21.253906 " fill-opacity="1" fill-rule="nonzero"/></g><g clip-path="url(#c9cd92f55d)"><path fill="#153b70" d="M 23.441406 21.253906 L 20.746094 12.65625 L 16.960938 12.65625 L 19.65625 21.253906 L 23.441406 21.253906 " fill-opacity="1" fill-rule="nonzero"/></g><g fill="#153b70" fill-opacity="1"><g transform="translate(27.883801, 19.707471)"><g><path d="M 6.367188 -3.851562 L 3.820312 -3.851562 L 5.09375 -7.433594 Z M 10.128906 0 L 6.042969 -10.070312 L 4.160156 -10.070312 L 0.0742188 0 L 2.457031 0 L 3.183594 -2.027344 L 7.019531 -2.027344 L 7.746094 0 Z M 10.128906 0 "/></g></g></g><g fill="#153b70" fill-opacity="1"><g transform="translate(41.050689, 19.707471)"><g><path d="M 13.449219 0 L 11.492188 -10.070312 L 8.855469 -10.070312 L 6.769531 -3.007812 L 4.664062 -10.070312 L 2.027344 -10.070312 L 0.0742188 0 L 2.519531 0 L 3.703125 -6.945312 L 5.671875 0 L 7.847656 0 L 9.820312 -6.945312 L 11.003906 0 Z M 13.449219 0 "/></g></g></g><g fill="#153b70" fill-opacity="1"><g transform="translate(57.535091, 19.707471)"><g><path d="M 6.367188 -3.851562 L 3.820312 -3.851562 L 5.09375 -7.433594 Z M 10.128906 0 L 6.042969 -10.070312 L 4.160156 -10.070312 L 0.0742188 0 L 2.457031 0 L 3.183594 -2.027344 L 7.019531 -2.027344 L 7.746094 0 Z M 10.128906 0 "/></g></g></g><g fill="#153b70" fill-opacity="1"><g transform="translate(70.701979, 19.707471)"><g><path d="M 8.796875 0 L 8.796875 -10.070312 L 6.574219 -10.070312 L 6.574219 -3.792969 L 3.109375 -10.070312 L 0.886719 -10.070312 L 0.886719 0 L 3.109375 0 L 3.109375 -6.28125 L 6.574219 0 Z M 8.796875 0 "/></g></g></g><g fill="#153b70" fill-opacity="1"><g transform="translate(83.350508, 19.707471)"><g><path d="M 6.367188 -3.851562 L 3.820312 -3.851562 L 5.09375 -7.433594 Z M 10.128906 0 L 6.042969 -10.070312 L 4.160156 -10.070312 L 0.0742188 0 L 2.457031 0 L 3.183594 -2.027344 L 7.019531 -2.027344 L 7.746094 0 Z M 10.128906 0 "/></g></g></g><g fill="#153b70" fill-opacity="1"><g transform="translate(96.517396, 19.707471)"><g><path d="M 6.429688 -10.070312 L 6.429688 -6.058594 L 3.109375 -6.058594 L 3.109375 -10.070312 L 0.886719 -10.070312 L 0.886719 0 L 3.109375 0 L 3.109375 -4.042969 L 6.429688 -4.042969 L 6.429688 0 L 8.796875 0 L 8.796875 -10.070312 Z M 6.429688 -10.070312 "/></g></g></g></svg>