<svg xmlns="http://www.w3.org/2000/svg" xmlns:xlink="http://www.w3.org/1999/xlink" width="300" zoomAndPan="magnify" viewBox="0 0 224.87999 149.999998" height="200" preserveAspectRatio="xMidYMid meet" version="1.0"><defs><g/><clipPath id="12c65052cd"><path d="M 64.058594 6 L 100 6 L 100 82.917969 L 64.058594 82.917969 Z M 64.058594 6 " clip-rule="nonzero"/></clipPath><clipPath id="1765f5daff"><path d="M 88 4.960938 L 120 4.960938 L 120 68 L 88 68 Z M 88 4.960938 " clip-rule="nonzero"/></clipPath><clipPath id="d9e5913213"><path d="M 104 33 L 132 33 L 132 82.917969 L 104 82.917969 Z M 104 33 " clip-rule="nonzero"/></clipPath><clipPath id="135b4b0272"><path d="M 120 31 L 159.257812 31 L 159.257812 82.917969 L 120 82.917969 Z M 120 31 " clip-rule="nonzero"/></clipPath></defs><g clip-path="url(#12c65052cd)"><path fill="#ffa31a" d="M 87.910156 6.785156 L 64.054688 82.90625 L 86.523438 82.90625 L 99.144531 42.632812 L 87.910156 6.785156 " fill-opacity="1" fill-rule="nonzero"/></g><g clip-path="url(#1765f5daff)"><path fill="#153b70" d="M 119.433594 31.59375 L 111.09375 4.976562 L 88.625 4.976562 L 108.199219 67.441406 L 119.433594 31.59375 " fill-opacity="1" fill-rule="nonzero"/></g><g clip-path="url(#d9e5913213)"><path fill="#ffa31a" d="M 127.101562 82.90625 L 131.304688 69.503906 L 120.066406 33.65625 L 104.632812 82.90625 L 127.101562 82.90625 " fill-opacity="1" fill-rule="nonzero"/></g><g clip-path="url(#135b4b0272)"><path fill="#153b70" d="M 159.253906 82.90625 L 143.25 31.851562 L 120.78125 31.851562 L 136.785156 82.90625 L 159.253906 82.90625 " fill-opacity="1" fill-rule="nonzero"/></g><g fill="#153b70" fill-opacity="1"><g transform="translate(13.718942, 123.134569)"><g><path d="M 15.953125 -9.644531 L 9.570312 -9.644531 L 12.761719 -18.621094 Z M 25.375 0 L 15.136719 -25.226562 L 10.425781 -25.226562 L 0.183594 0 L 6.15625 0 L 7.976562 -5.082031 L 17.582031 -5.082031 L 19.402344 0 Z M 25.375 0 "/></g></g></g><g fill="#153b70" fill-opacity="1"><g transform="translate(46.698557, 123.134569)"><g><path d="M 33.683594 0 L 28.785156 -25.226562 L 22.183594 -25.226562 L 16.953125 -7.53125 L 11.683594 -25.226562 L 5.082031 -25.226562 L 0.183594 0 L 6.304688 0 L 9.273438 -17.398438 L 14.207031 0 L 19.660156 0 L 24.59375 -17.398438 L 27.5625 0 Z M 33.683594 0 "/></g></g></g><g fill="#153b70" fill-opacity="1"><g transform="translate(87.987677, 123.134569)"><g><path d="M 15.953125 -9.644531 L 9.570312 -9.644531 L 12.761719 -18.621094 Z M 25.375 0 L 15.136719 -25.226562 L 10.425781 -25.226562 L 0.183594 0 L 6.15625 0 L 7.976562 -5.082031 L 17.582031 -5.082031 L 19.402344 0 Z M 25.375 0 "/></g></g></g><g fill="#153b70" fill-opacity="1"><g transform="translate(120.967292, 123.134569)"><g><path d="M 22.035156 0 L 22.035156 -25.226562 L 16.472656 -25.226562 L 16.472656 -9.496094 L 7.789062 -25.226562 L 2.226562 -25.226562 L 2.226562 0 L 7.789062 0 L 7.789062 -15.730469 L 16.472656 0 Z M 22.035156 0 "/></g></g></g><g fill="#153b70" fill-opacity="1"><g transform="translate(152.648551, 123.134569)"><g><path d="M 15.953125 -9.644531 L 9.570312 -9.644531 L 12.761719 -18.621094 Z M 25.375 0 L 15.136719 -25.226562 L 10.425781 -25.226562 L 0.183594 0 L 6.15625 0 L 7.976562 -5.082031 L 17.582031 -5.082031 L 19.402344 0 Z M 25.375 0 "/></g></g></g><g fill="#153b70" fill-opacity="1"><g transform="translate(185.628166, 123.134569)"><g><path d="M 16.101562 -25.226562 L 16.101562 -15.171875 L 7.789062 -15.171875 L 7.789062 -25.226562 L 2.226562 -25.226562 L 2.226562 0 L 7.789062 0 L 7.789062 -10.128906 L 16.101562 -10.128906 L 16.101562 0 L 22.035156 0 L 22.035156 -25.226562 Z M 16.101562 -25.226562 "/></g></g></g><g fill="#153b70" fill-opacity="1"><g transform="translate(21.112685, 142.018915)"><g><path d="M 2.328125 0.460938 L 4.535156 -4.808594 L 3.707031 -4.808594 L 2.328125 -1.234375 L 0.941406 -4.808594 L 0.109375 -4.808594 Z M 2.328125 0.460938 "/></g></g></g><g fill="#153b70" fill-opacity="1"><g transform="translate(27.943852, 142.018915)"><g><path d="M 5.519531 -2.515625 C 5.519531 -3.167969 5.257812 -3.738281 4.753906 -4.230469 C 4.261719 -4.699219 3.671875 -4.941406 3.003906 -4.941406 C 2.304688 -4.941406 1.714844 -4.6875 1.222656 -4.195312 C 0.730469 -3.707031 0.492188 -3.113281 0.492188 -2.425781 C 0.492188 -1.726562 0.730469 -1.136719 1.222656 -0.65625 C 1.453125 -0.425781 1.714844 -0.25 2.023438 -0.121094 C 2.328125 0.0117188 2.6875 0.078125 3.113281 0.078125 C 3.542969 0.078125 3.957031 -0.0546875 4.371094 -0.316406 C 4.789062 -0.578125 5.09375 -0.949219 5.300781 -1.410156 L 4.425781 -1.410156 C 4.25 -1.179688 4.042969 -1.003906 3.792969 -0.875 C 3.542969 -0.742188 3.277344 -0.6875 3.003906 -0.6875 C 2.589844 -0.6875 2.21875 -0.820312 1.890625 -1.09375 C 1.5625 -1.355469 1.355469 -1.695312 1.289062 -2.109375 L 5.519531 -2.109375 Z M 4.710938 -2.765625 L 1.300781 -2.765625 C 1.34375 -2.960938 1.421875 -3.148438 1.53125 -3.324219 C 1.878906 -3.890625 2.371094 -4.175781 3.003906 -4.175781 C 3.410156 -4.175781 3.769531 -4.042969 4.089844 -3.78125 C 4.414062 -3.507812 4.613281 -3.167969 4.710938 -2.765625 Z M 4.710938 -2.765625 "/></g></g></g><g fill="#153b70" fill-opacity="1"><g transform="translate(36.086527, 142.018915)"><g><path d="M 4.140625 0 L 4.90625 0 L 4.90625 -3.003906 C 4.90625 -3.5625 4.753906 -4.011719 4.46875 -4.351562 C 4.316406 -4.523438 4.140625 -4.65625 3.933594 -4.753906 C 3.714844 -4.851562 3.441406 -4.90625 3.105469 -4.90625 C 2.753906 -4.90625 2.460938 -4.808594 2.195312 -4.632812 C 1.945312 -4.46875 1.738281 -4.25 1.585938 -3.980469 L 1.585938 -4.808594 L 0.820312 -4.808594 L 0.820312 0 L 1.585938 0 L 1.585938 -2.011719 C 1.585938 -2.625 1.695312 -3.105469 1.921875 -3.464844 C 2.054688 -3.660156 2.21875 -3.824219 2.425781 -3.957031 C 2.625 -4.078125 2.898438 -4.140625 3.222656 -4.140625 C 3.550781 -4.140625 3.78125 -4.023438 3.925781 -3.804688 C 4.066406 -3.585938 4.140625 -3.3125 4.140625 -3.003906 Z M 4.140625 0 "/></g></g></g><g fill="#153b70" fill-opacity="1"><g transform="translate(43.835747, 142.018915)"><g><path d="M 4.644531 -2.40625 C 4.644531 -1.933594 4.480469 -1.519531 4.152344 -1.179688 C 3.824219 -0.832031 3.421875 -0.65625 2.949219 -0.65625 C 2.46875 -0.65625 2.066406 -0.832031 1.738281 -1.179688 C 1.410156 -1.519531 1.257812 -1.933594 1.257812 -2.40625 C 1.257812 -2.863281 1.410156 -3.277344 1.738281 -3.628906 C 2.066406 -3.980469 2.46875 -4.152344 2.949219 -4.152344 C 3.421875 -4.152344 3.824219 -3.980469 4.152344 -3.628906 C 4.480469 -3.277344 4.644531 -2.863281 4.644531 -2.40625 Z M 5.410156 0 L 5.410156 -8.199219 L 4.644531 -8.199219 L 4.644531 -3.980469 C 4.601562 -4.042969 4.546875 -4.097656 4.503906 -4.152344 C 4.042969 -4.65625 3.488281 -4.917969 2.832031 -4.917969 C 2.164062 -4.917969 1.605469 -4.65625 1.148438 -4.152344 C 0.710938 -3.652344 0.492188 -3.070312 0.492188 -2.40625 C 0.492188 -1.726562 0.710938 -1.148438 1.148438 -0.65625 C 1.605469 -0.140625 2.164062 0.109375 2.832031 0.109375 C 3.488281 0.109375 4.042969 -0.140625 4.503906 -0.65625 C 4.546875 -0.699219 4.601562 -0.753906 4.644531 -0.820312 L 4.644531 0 Z M 5.410156 0 "/></g></g></g><g fill="#153b70" fill-opacity="1"><g transform="translate(52.251659, 142.018915)"><g><path d="M 4.753906 -2.425781 C 4.753906 -1.945312 4.578125 -1.542969 4.242188 -1.203125 C 3.890625 -0.851562 3.488281 -0.6875 3.003906 -0.6875 C 2.523438 -0.6875 2.109375 -0.851562 1.769531 -1.203125 C 1.421875 -1.542969 1.257812 -1.945312 1.257812 -2.425781 C 1.257812 -2.90625 1.421875 -3.3125 1.769531 -3.660156 C 2.109375 -4 2.523438 -4.175781 3.003906 -4.175781 C 3.488281 -4.175781 3.890625 -4 4.242188 -3.660156 C 4.578125 -3.3125 4.753906 -2.90625 4.753906 -2.425781 Z M 5.519531 -2.425781 C 5.519531 -3.113281 5.269531 -3.707031 4.777344 -4.195312 C 4.285156 -4.6875 3.695312 -4.941406 3.003906 -4.941406 C 2.304688 -4.941406 1.714844 -4.6875 1.222656 -4.195312 C 0.730469 -3.707031 0.492188 -3.113281 0.492188 -2.425781 C 0.492188 -1.726562 0.730469 -1.136719 1.222656 -0.65625 C 1.714844 -0.164062 2.316406 0.078125 3.003906 0.078125 C 3.683594 0.078125 4.285156 -0.164062 4.777344 -0.65625 C 5.269531 -1.136719 5.519531 -1.726562 5.519531 -2.425781 Z M 5.519531 -2.425781 "/></g></g></g><g fill="#153b70" fill-opacity="1"><g transform="translate(60.44898, 142.018915)"><g><path d="M 3.289062 -3.816406 L 3.289062 -4.808594 C 3.136719 -4.875 2.972656 -4.90625 2.808594 -4.90625 C 2.261719 -4.90625 1.867188 -4.601562 1.617188 -4.011719 L 1.585938 -3.816406 L 1.585938 -4.808594 L 0.820312 -4.808594 L 0.820312 0 L 1.585938 0 L 1.585938 -2.40625 C 1.585938 -2.796875 1.671875 -3.148438 1.859375 -3.464844 C 1.945312 -3.628906 2.066406 -3.769531 2.207031 -3.878906 C 2.351562 -3.988281 2.523438 -4.054688 2.722656 -4.054688 C 2.917969 -4.054688 3.105469 -3.96875 3.289062 -3.816406 Z M 3.289062 -3.816406 "/></g></g></g><g fill="#153b70" fill-opacity="1"><g transform="translate(66.034213, 142.018915)"><g/></g></g><g fill="#153b70" fill-opacity="1"><g transform="translate(71.171345, 142.018915)"><g><path d="M 6.917969 -0.0234375 L 7.683594 -0.0234375 L 7.683594 -3.027344 C 7.683594 -3.5625 7.542969 -4.011719 7.28125 -4.359375 C 7.148438 -4.535156 6.972656 -4.667969 6.777344 -4.777344 C 6.570312 -4.886719 6.296875 -4.941406 5.96875 -4.941406 C 5.628906 -4.941406 5.332031 -4.84375 5.082031 -4.667969 C 4.851562 -4.492188 4.667969 -4.285156 4.515625 -4.023438 C 4.460938 -4.140625 4.394531 -4.25 4.316406 -4.359375 C 4.1875 -4.535156 4.011719 -4.667969 3.816406 -4.777344 C 3.605469 -4.886719 3.332031 -4.941406 3.003906 -4.941406 C 2.667969 -4.941406 2.371094 -4.84375 2.121094 -4.667969 C 1.902344 -4.503906 1.726562 -4.304688 1.585938 -4.054688 L 1.585938 -4.832031 L 0.820312 -4.832031 L 0.820312 -0.0234375 L 1.585938 -0.0234375 L 1.585938 -2.480469 C 1.617188 -2.863281 1.714844 -3.203125 1.878906 -3.476562 C 1.988281 -3.671875 2.152344 -3.847656 2.351562 -3.980469 C 2.546875 -4.109375 2.753906 -4.175781 2.984375 -4.175781 C 3.203125 -4.175781 3.378906 -4.132812 3.488281 -4.066406 C 3.792969 -3.871094 3.957031 -3.519531 3.957031 -3.027344 L 3.957031 -0.0234375 L 4.722656 -0.0234375 L 4.722656 -3.027344 C 4.722656 -3.082031 4.710938 -3.148438 4.710938 -3.203125 C 4.742188 -3.300781 4.789062 -3.386719 4.84375 -3.476562 C 4.953125 -3.671875 5.117188 -3.847656 5.3125 -3.980469 C 5.507812 -4.109375 5.714844 -4.175781 5.945312 -4.175781 C 6.164062 -4.175781 6.339844 -4.132812 6.449219 -4.066406 C 6.753906 -3.871094 6.917969 -3.519531 6.917969 -3.027344 Z M 6.917969 -0.0234375 "/></g></g></g><g fill="#153b70" fill-opacity="1"><g transform="translate(81.696603, 142.018915)"><g><path d="M 4.644531 -2.40625 C 4.644531 -1.933594 4.480469 -1.519531 4.152344 -1.179688 C 3.824219 -0.832031 3.421875 -0.65625 2.949219 -0.65625 C 2.46875 -0.65625 2.066406 -0.832031 1.738281 -1.179688 C 1.410156 -1.519531 1.257812 -1.933594 1.257812 -2.40625 C 1.257812 -2.863281 1.410156 -3.277344 1.738281 -3.628906 C 2.066406 -3.980469 2.46875 -4.152344 2.949219 -4.152344 C 3.421875 -4.152344 3.824219 -3.980469 4.152344 -3.628906 C 4.480469 -3.277344 4.644531 -2.863281 4.644531 -2.40625 Z M 5.410156 0 L 5.410156 -4.808594 L 4.644531 -4.808594 L 4.644531 -3.980469 C 4.601562 -4.042969 4.546875 -4.097656 4.503906 -4.152344 C 4.042969 -4.65625 3.488281 -4.917969 2.832031 -4.917969 C 2.164062 -4.917969 1.605469 -4.65625 1.148438 -4.152344 C 0.710938 -3.652344 0.492188 -3.070312 0.492188 -2.40625 C 0.492188 -1.726562 0.710938 -1.148438 1.148438 -0.65625 C 1.605469 -0.140625 2.164062 0.109375 2.832031 0.109375 C 3.488281 0.109375 4.042969 -0.140625 4.503906 -0.65625 C 4.546875 -0.699219 4.601562 -0.753906 4.644531 -0.820312 L 4.644531 0 Z M 5.410156 0 "/></g></g></g><g fill="#153b70" fill-opacity="1"><g transform="translate(90.112516, 142.018915)"><g><path d="M 4.140625 0 L 4.90625 0 L 4.90625 -3.003906 C 4.90625 -3.5625 4.753906 -4.011719 4.46875 -4.351562 C 4.316406 -4.523438 4.140625 -4.65625 3.933594 -4.753906 C 3.714844 -4.851562 3.441406 -4.90625 3.105469 -4.90625 C 2.753906 -4.90625 2.460938 -4.808594 2.195312 -4.632812 C 1.945312 -4.46875 1.738281 -4.25 1.585938 -3.980469 L 1.585938 -4.808594 L 0.820312 -4.808594 L 0.820312 0 L 1.585938 0 L 1.585938 -2.011719 C 1.585938 -2.625 1.695312 -3.105469 1.921875 -3.464844 C 2.054688 -3.660156 2.21875 -3.824219 2.425781 -3.957031 C 2.625 -4.078125 2.898438 -4.140625 3.222656 -4.140625 C 3.550781 -4.140625 3.78125 -4.023438 3.925781 -3.804688 C 4.066406 -3.585938 4.140625 -3.3125 4.140625 -3.003906 Z M 4.140625 0 "/></g></g></g><g fill="#153b70" fill-opacity="1"><g transform="translate(97.861738, 142.018915)"><g><path d="M 4.644531 -2.40625 C 4.644531 -1.933594 4.480469 -1.519531 4.152344 -1.179688 C 3.824219 -0.832031 3.421875 -0.65625 2.949219 -0.65625 C 2.46875 -0.65625 2.066406 -0.832031 1.738281 -1.179688 C 1.410156 -1.519531 1.257812 -1.933594 1.257812 -2.40625 C 1.257812 -2.863281 1.410156 -3.277344 1.738281 -3.628906 C 2.066406 -3.980469 2.46875 -4.152344 2.949219 -4.152344 C 3.421875 -4.152344 3.824219 -3.980469 4.152344 -3.628906 C 4.480469 -3.277344 4.644531 -2.863281 4.644531 -2.40625 Z M 5.410156 0 L 5.410156 -4.808594 L 4.644531 -4.808594 L 4.644531 -3.980469 C 4.601562 -4.042969 4.546875 -4.097656 4.503906 -4.152344 C 4.042969 -4.65625 3.488281 -4.917969 2.832031 -4.917969 C 2.164062 -4.917969 1.605469 -4.65625 1.148438 -4.152344 C 0.710938 -3.652344 0.492188 -3.070312 0.492188 -2.40625 C 0.492188 -1.726562 0.710938 -1.148438 1.148438 -0.65625 C 1.605469 -0.140625 2.164062 0.109375 2.832031 0.109375 C 3.488281 0.109375 4.042969 -0.140625 4.503906 -0.65625 C 4.546875 -0.699219 4.601562 -0.753906 4.644531 -0.820312 L 4.644531 0 Z M 5.410156 0 "/></g></g></g><g fill="#153b70" fill-opacity="1"><g transform="translate(106.277651, 142.018915)"><g><path d="M 4.710938 -2.40625 C 4.710938 -1.933594 4.546875 -1.519531 4.21875 -1.179688 C 3.890625 -0.832031 3.488281 -0.65625 3.015625 -0.65625 C 2.546875 -0.65625 2.140625 -0.832031 1.8125 -1.179688 C 1.488281 -1.519531 1.324219 -1.921875 1.324219 -2.40625 C 1.324219 -2.875 1.488281 -3.277344 1.8125 -3.628906 C 2.140625 -3.980469 2.546875 -4.152344 3.015625 -4.152344 C 3.488281 -4.152344 3.890625 -3.980469 4.21875 -3.628906 C 4.546875 -3.277344 4.710938 -2.863281 4.710938 -2.40625 Z M 1.300781 0.65625 L 0.515625 0.65625 C 0.601562 1.167969 0.832031 1.617188 1.222656 2 C 1.707031 2.492188 2.296875 2.734375 2.984375 2.734375 C 3.660156 2.734375 4.25 2.492188 4.742188 2 C 5.226562 1.519531 5.476562 0.929688 5.476562 0.242188 L 5.476562 -4.808594 L 4.710938 -4.808594 L 4.710938 -4 C 4.667969 -4.042969 4.625 -4.097656 4.578125 -4.152344 C 4.097656 -4.65625 3.542969 -4.917969 2.90625 -4.917969 C 2.230469 -4.917969 1.671875 -4.65625 1.214844 -4.152344 C 0.777344 -3.652344 0.558594 -3.070312 0.558594 -2.40625 C 0.558594 -1.726562 0.777344 -1.148438 1.214844 -0.65625 C 1.671875 -0.140625 2.230469 0.109375 2.90625 0.109375 C 3.5625 0.109375 4.121094 -0.140625 4.578125 -0.65625 C 4.625 -0.699219 4.667969 -0.753906 4.710938 -0.796875 L 4.710938 0.242188 C 4.710938 0.722656 4.535156 1.125 4.195312 1.464844 C 3.859375 1.804688 3.453125 1.96875 2.984375 1.96875 C 2.503906 1.96875 2.097656 1.804688 1.761719 1.464844 C 1.519531 1.222656 1.367188 0.960938 1.300781 0.65625 Z M 1.300781 0.65625 "/></g></g></g><g fill="#153b70" fill-opacity="1"><g transform="translate(114.759137, 142.018915)"><g><path d="M 5.519531 -2.515625 C 5.519531 -3.167969 5.257812 -3.738281 4.753906 -4.230469 C 4.261719 -4.699219 3.671875 -4.941406 3.003906 -4.941406 C 2.304688 -4.941406 1.714844 -4.6875 1.222656 -4.195312 C 0.730469 -3.707031 0.492188 -3.113281 0.492188 -2.425781 C 0.492188 -1.726562 0.730469 -1.136719 1.222656 -0.65625 C 1.453125 -0.425781 1.714844 -0.25 2.023438 -0.121094 C 2.328125 0.0117188 2.6875 0.078125 3.113281 0.078125 C 3.542969 0.078125 3.957031 -0.0546875 4.371094 -0.316406 C 4.789062 -0.578125 5.09375 -0.949219 5.300781 -1.410156 L 4.425781 -1.410156 C 4.25 -1.179688 4.042969 -1.003906 3.792969 -0.875 C 3.542969 -0.742188 3.277344 -0.6875 3.003906 -0.6875 C 2.589844 -0.6875 2.21875 -0.820312 1.890625 -1.09375 C 1.5625 -1.355469 1.355469 -1.695312 1.289062 -2.109375 L 5.519531 -2.109375 Z M 4.710938 -2.765625 L 1.300781 -2.765625 C 1.34375 -2.960938 1.421875 -3.148438 1.53125 -3.324219 C 1.878906 -3.890625 2.371094 -4.175781 3.003906 -4.175781 C 3.410156 -4.175781 3.769531 -4.042969 4.089844 -3.78125 C 4.414062 -3.507812 4.613281 -3.167969 4.710938 -2.765625 Z M 4.710938 -2.765625 "/></g></g></g><g fill="#153b70" fill-opacity="1"><g transform="translate(122.901807, 142.018915)"><g><path d="M 6.917969 -0.0234375 L 7.683594 -0.0234375 L 7.683594 -3.027344 C 7.683594 -3.5625 7.542969 -4.011719 7.28125 -4.359375 C 7.148438 -4.535156 6.972656 -4.667969 6.777344 -4.777344 C 6.570312 -4.886719 6.296875 -4.941406 5.96875 -4.941406 C 5.628906 -4.941406 5.332031 -4.84375 5.082031 -4.667969 C 4.851562 -4.492188 4.667969 -4.285156 4.515625 -4.023438 C 4.460938 -4.140625 4.394531 -4.25 4.316406 -4.359375 C 4.1875 -4.535156 4.011719 -4.667969 3.816406 -4.777344 C 3.605469 -4.886719 3.332031 -4.941406 3.003906 -4.941406 C 2.667969 -4.941406 2.371094 -4.84375 2.121094 -4.667969 C 1.902344 -4.503906 1.726562 -4.304688 1.585938 -4.054688 L 1.585938 -4.832031 L 0.820312 -4.832031 L 0.820312 -0.0234375 L 1.585938 -0.0234375 L 1.585938 -2.480469 C 1.617188 -2.863281 1.714844 -3.203125 1.878906 -3.476562 C 1.988281 -3.671875 2.152344 -3.847656 2.351562 -3.980469 C 2.546875 -4.109375 2.753906 -4.175781 2.984375 -4.175781 C 3.203125 -4.175781 3.378906 -4.132812 3.488281 -4.066406 C 3.792969 -3.871094 3.957031 -3.519531 3.957031 -3.027344 L 3.957031 -0.0234375 L 4.722656 -0.0234375 L 4.722656 -3.027344 C 4.722656 -3.082031 4.710938 -3.148438 4.710938 -3.203125 C 4.742188 -3.300781 4.789062 -3.386719 4.84375 -3.476562 C 4.953125 -3.671875 5.117188 -3.847656 5.3125 -3.980469 C 5.507812 -4.109375 5.714844 -4.175781 5.945312 -4.175781 C 6.164062 -4.175781 6.339844 -4.132812 6.449219 -4.066406 C 6.753906 -3.871094 6.917969 -3.519531 6.917969 -3.027344 Z M 6.917969 -0.0234375 "/></g></g></g><g fill="#153b70" fill-opacity="1"><g transform="translate(133.427065, 142.018915)"><g><path d="M 5.519531 -2.515625 C 5.519531 -3.167969 5.257812 -3.738281 4.753906 -4.230469 C 4.261719 -4.699219 3.671875 -4.941406 3.003906 -4.941406 C 2.304688 -4.941406 1.714844 -4.6875 1.222656 -4.195312 C 0.730469 -3.707031 0.492188 -3.113281 0.492188 -2.425781 C 0.492188 -1.726562 0.730469 -1.136719 1.222656 -0.65625 C 1.453125 -0.425781 1.714844 -0.25 2.023438 -0.121094 C 2.328125 0.0117188 2.6875 0.078125 3.113281 0.078125 C 3.542969 0.078125 3.957031 -0.0546875 4.371094 -0.316406 C 4.789062 -0.578125 5.09375 -0.949219 5.300781 -1.410156 L 4.425781 -1.410156 C 4.25 -1.179688 4.042969 -1.003906 3.792969 -0.875 C 3.542969 -0.742188 3.277344 -0.6875 3.003906 -0.6875 C 2.589844 -0.6875 2.21875 -0.820312 1.890625 -1.09375 C 1.5625 -1.355469 1.355469 -1.695312 1.289062 -2.109375 L 5.519531 -2.109375 Z M 4.710938 -2.765625 L 1.300781 -2.765625 C 1.34375 -2.960938 1.421875 -3.148438 1.53125 -3.324219 C 1.878906 -3.890625 2.371094 -4.175781 3.003906 -4.175781 C 3.410156 -4.175781 3.769531 -4.042969 4.089844 -3.78125 C 4.414062 -3.507812 4.613281 -3.167969 4.710938 -2.765625 Z M 4.710938 -2.765625 "/></g></g></g><g fill="#153b70" fill-opacity="1"><g transform="translate(141.569741, 142.018915)"><g><path d="M 4.140625 0 L 4.90625 0 L 4.90625 -3.003906 C 4.90625 -3.5625 4.753906 -4.011719 4.46875 -4.351562 C 4.316406 -4.523438 4.140625 -4.65625 3.933594 -4.753906 C 3.714844 -4.851562 3.441406 -4.90625 3.105469 -4.90625 C 2.753906 -4.90625 2.460938 -4.808594 2.195312 -4.632812 C 1.945312 -4.46875 1.738281 -4.25 1.585938 -3.980469 L 1.585938 -4.808594 L 0.820312 -4.808594 L 0.820312 0 L 1.585938 0 L 1.585938 -2.011719 C 1.585938 -2.625 1.695312 -3.105469 1.921875 -3.464844 C 2.054688 -3.660156 2.21875 -3.824219 2.425781 -3.957031 C 2.625 -4.078125 2.898438 -4.140625 3.222656 -4.140625 C 3.550781 -4.140625 3.78125 -4.023438 3.925781 -3.804688 C 4.066406 -3.585938 4.140625 -3.3125 4.140625 -3.003906 Z M 4.140625 0 "/></g></g></g><g fill="#153b70" fill-opacity="1"><g transform="translate(149.318962, 142.018915)"><g><path d="M 0.21875 -4.097656 L 1.421875 -4.097656 L 1.421875 0 L 2.1875 0 L 2.1875 -4.097656 L 3.378906 -4.097656 L 3.378906 -4.808594 L 2.1875 -4.808594 L 2.1875 -6.679688 L 1.421875 -6.679688 L 1.421875 -4.808594 L 0.21875 -4.808594 Z M 0.21875 -4.097656 "/></g></g></g><g fill="#153b70" fill-opacity="1"><g transform="translate(155.100922, 142.018915)"><g/></g></g><g fill="#153b70" fill-opacity="1"><g transform="translate(160.238055, 142.018915)"><g><path d="M 1.507812 -0.675781 C 1.324219 -0.808594 1.179688 -1.027344 1.105469 -1.34375 L 0.296875 -1.34375 C 0.460938 -0.351562 1.09375 0.140625 2.207031 0.140625 C 2.46875 0.140625 2.710938 0.121094 2.941406 0.0546875 C 3.167969 -0.0117188 3.367188 -0.0976562 3.550781 -0.21875 C 3.925781 -0.46875 4.109375 -0.851562 4.109375 -1.367188 C 4.109375 -1.890625 3.871094 -2.261719 3.367188 -2.503906 C 3.160156 -2.601562 2.929688 -2.679688 2.679688 -2.734375 C 2.4375 -2.789062 2.207031 -2.851562 2 -2.917969 C 1.78125 -2.984375 1.605469 -3.070312 1.464844 -3.167969 C 1.324219 -3.269531 1.246094 -3.421875 1.246094 -3.640625 C 1.246094 -3.859375 1.332031 -4.023438 1.507812 -4.121094 C 1.683594 -4.230469 1.890625 -4.285156 2.121094 -4.285156 C 2.359375 -4.285156 2.570312 -4.230469 2.734375 -4.140625 C 2.898438 -4.054688 3.027344 -3.878906 3.105469 -3.617188 L 3.925781 -3.617188 C 3.824219 -4.097656 3.617188 -4.4375 3.3125 -4.625 C 2.996094 -4.820312 2.613281 -4.917969 2.140625 -4.917969 C 1.683594 -4.917969 1.277344 -4.789062 0.941406 -4.546875 C 0.613281 -4.296875 0.4375 -3.933594 0.4375 -3.453125 C 0.4375 -3.222656 0.503906 -3.015625 0.621094 -2.84375 C 0.753906 -2.65625 0.941406 -2.515625 1.179688 -2.40625 C 1.398438 -2.304688 1.628906 -2.230469 1.867188 -2.164062 C 2.109375 -2.109375 2.339844 -2.042969 2.558594 -1.976562 C 3.050781 -1.8125 3.300781 -1.574219 3.300781 -1.269531 C 3.300781 -0.742188 2.949219 -0.492188 2.25 -0.492188 C 1.957031 -0.492188 1.707031 -0.546875 1.507812 -0.675781 Z M 1.507812 -0.675781 "/></g></g></g><g fill="#153b70" fill-opacity="1"><g transform="translate(166.81785, 142.018915)"><g><path d="M 1.433594 2.734375 L 4.753906 -4.808594 L 3.902344 -4.808594 L 2.523438 -1.585938 L 0.984375 -4.808594 L 0.109375 -4.808594 L 2.121094 -0.785156 L 0.503906 2.734375 Z M 1.433594 2.734375 "/></g></g></g><g fill="#153b70" fill-opacity="1"><g transform="translate(173.649019, 142.018915)"><g><path d="M 1.507812 -0.675781 C 1.324219 -0.808594 1.179688 -1.027344 1.105469 -1.34375 L 0.296875 -1.34375 C 0.460938 -0.351562 1.09375 0.140625 2.207031 0.140625 C 2.46875 0.140625 2.710938 0.121094 2.941406 0.0546875 C 3.167969 -0.0117188 3.367188 -0.0976562 3.550781 -0.21875 C 3.925781 -0.46875 4.109375 -0.851562 4.109375 -1.367188 C 4.109375 -1.890625 3.871094 -2.261719 3.367188 -2.503906 C 3.160156 -2.601562 2.929688 -2.679688 2.679688 -2.734375 C 2.4375 -2.789062 2.207031 -2.851562 2 -2.917969 C 1.78125 -2.984375 1.605469 -3.070312 1.464844 -3.167969 C 1.324219 -3.269531 1.246094 -3.421875 1.246094 -3.640625 C 1.246094 -3.859375 1.332031 -4.023438 1.507812 -4.121094 C 1.683594 -4.230469 1.890625 -4.285156 2.121094 -4.285156 C 2.359375 -4.285156 2.570312 -4.230469 2.734375 -4.140625 C 2.898438 -4.054688 3.027344 -3.878906 3.105469 -3.617188 L 3.925781 -3.617188 C 3.824219 -4.097656 3.617188 -4.4375 3.3125 -4.625 C 2.996094 -4.820312 2.613281 -4.917969 2.140625 -4.917969 C 1.683594 -4.917969 1.277344 -4.789062 0.941406 -4.546875 C 0.613281 -4.296875 0.4375 -3.933594 0.4375 -3.453125 C 0.4375 -3.222656 0.503906 -3.015625 0.621094 -2.84375 C 0.753906 -2.65625 0.941406 -2.515625 1.179688 -2.40625 C 1.398438 -2.304688 1.628906 -2.230469 1.867188 -2.164062 C 2.109375 -2.109375 2.339844 -2.042969 2.558594 -1.976562 C 3.050781 -1.8125 3.300781 -1.574219 3.300781 -1.269531 C 3.300781 -0.742188 2.949219 -0.492188 2.25 -0.492188 C 1.957031 -0.492188 1.707031 -0.546875 1.507812 -0.675781 Z M 1.507812 -0.675781 "/></g></g></g><g fill="#153b70" fill-opacity="1"><g transform="translate(180.228815, 142.018915)"><g><path d="M 0.21875 -4.097656 L 1.421875 -4.097656 L 1.421875 0 L 2.1875 0 L 2.1875 -4.097656 L 3.378906 -4.097656 L 3.378906 -4.808594 L 2.1875 -4.808594 L 2.1875 -6.679688 L 1.421875 -6.679688 L 1.421875 -4.808594 L 0.21875 -4.808594 Z M 0.21875 -4.097656 "/></g></g></g><g fill="#153b70" fill-opacity="1"><g transform="translate(186.010774, 142.018915)"><g><path d="M 5.519531 -2.515625 C 5.519531 -3.167969 5.257812 -3.738281 4.753906 -4.230469 C 4.261719 -4.699219 3.671875 -4.941406 3.003906 -4.941406 C 2.304688 -4.941406 1.714844 -4.6875 1.222656 -4.195312 C 0.730469 -3.707031 0.492188 -3.113281 0.492188 -2.425781 C 0.492188 -1.726562 0.730469 -1.136719 1.222656 -0.65625 C 1.453125 -0.425781 1.714844 -0.25 2.023438 -0.121094 C 2.328125 0.0117188 2.6875 0.078125 3.113281 0.078125 C 3.542969 0.078125 3.957031 -0.0546875 4.371094 -0.316406 C 4.789062 -0.578125 5.09375 -0.949219 5.300781 -1.410156 L 4.425781 -1.410156 C 4.25 -1.179688 4.042969 -1.003906 3.792969 -0.875 C 3.542969 -0.742188 3.277344 -0.6875 3.003906 -0.6875 C 2.589844 -0.6875 2.21875 -0.820312 1.890625 -1.09375 C 1.5625 -1.355469 1.355469 -1.695312 1.289062 -2.109375 L 5.519531 -2.109375 Z M 4.710938 -2.765625 L 1.300781 -2.765625 C 1.34375 -2.960938 1.421875 -3.148438 1.53125 -3.324219 C 1.878906 -3.890625 2.371094 -4.175781 3.003906 -4.175781 C 3.410156 -4.175781 3.769531 -4.042969 4.089844 -3.78125 C 4.414062 -3.507812 4.613281 -3.167969 4.710938 -2.765625 Z M 4.710938 -2.765625 "/></g></g></g><g fill="#153b70" fill-opacity="1"><g transform="translate(194.15345, 142.018915)"><g><path d="M 6.917969 -0.0234375 L 7.683594 -0.0234375 L 7.683594 -3.027344 C 7.683594 -3.5625 7.542969 -4.011719 7.28125 -4.359375 C 7.148438 -4.535156 6.972656 -4.667969 6.777344 -4.777344 C 6.570312 -4.886719 6.296875 -4.941406 5.96875 -4.941406 C 5.628906 -4.941406 5.332031 -4.84375 5.082031 -4.667969 C 4.851562 -4.492188 4.667969 -4.285156 4.515625 -4.023438 C 4.460938 -4.140625 4.394531 -4.25 4.316406 -4.359375 C 4.1875 -4.535156 4.011719 -4.667969 3.816406 -4.777344 C 3.605469 -4.886719 3.332031 -4.941406 3.003906 -4.941406 C 2.667969 -4.941406 2.371094 -4.84375 2.121094 -4.667969 C 1.902344 -4.503906 1.726562 -4.304688 1.585938 -4.054688 L 1.585938 -4.832031 L 0.820312 -4.832031 L 0.820312 -0.0234375 L 1.585938 -0.0234375 L 1.585938 -2.480469 C 1.617188 -2.863281 1.714844 -3.203125 1.878906 -3.476562 C 1.988281 -3.671875 2.152344 -3.847656 2.351562 -3.980469 C 2.546875 -4.109375 2.753906 -4.175781 2.984375 -4.175781 C 3.203125 -4.175781 3.378906 -4.132812 3.488281 -4.066406 C 3.792969 -3.871094 3.957031 -3.519531 3.957031 -3.027344 L 3.957031 -0.0234375 L 4.722656 -0.0234375 L 4.722656 -3.027344 C 4.722656 -3.082031 4.710938 -3.148438 4.710938 -3.203125 C 4.742188 -3.300781 4.789062 -3.386719 4.84375 -3.476562 C 4.953125 -3.671875 5.117188 -3.847656 5.3125 -3.980469 C 5.507812 -4.109375 5.714844 -4.175781 5.945312 -4.175781 C 6.164062 -4.175781 6.339844 -4.132812 6.449219 -4.066406 C 6.753906 -3.871094 6.917969 -3.519531 6.917969 -3.027344 Z M 6.917969 -0.0234375 "/></g></g></g></svg>