<svg xmlns="http://www.w3.org/2000/svg" xmlns:xlink="http://www.w3.org/1999/xlink" width="200" zoomAndPan="magnify" viewBox="0 0 150 149.999998" height="200" preserveAspectRatio="xMidYMid meet" version="1.0"><defs><clipPath id="3f924f2bbb"><path d="M 0.839844 16 L 56 16 L 56 135.058594 L 0.839844 135.058594 Z M 0.839844 16 " clip-rule="nonzero"/></clipPath><clipPath id="1f132b4e96"><path d="M 39 13.558594 L 88 13.558594 L 88 111 L 39 111 Z M 39 13.558594 " clip-rule="nonzero"/></clipPath><clipPath id="5db3b35509"><path d="M 64 58 L 106 58 L 106 135.058594 L 64 135.058594 Z M 64 58 " clip-rule="nonzero"/></clipPath><clipPath id="c2f68f505d"><path d="M 89 55 L 149.339844 55 L 149.339844 135.058594 L 89 135.058594 Z M 89 55 " clip-rule="nonzero"/></clipPath></defs><g clip-path="url(#3f924f2bbb)"><path fill="#ffa31a" d="M 38.042969 16.40625 L 0.828125 135.039062 L 35.878906 135.039062 L 55.566406 72.273438 L 38.042969 16.40625 " fill-opacity="1" fill-rule="nonzero"/></g><g clip-path="url(#1f132b4e96)"><path fill="#153b70" d="M 87.214844 55.066406 L 74.207031 13.59375 L 39.15625 13.59375 L 69.691406 110.933594 L 87.214844 55.066406 " fill-opacity="1" fill-rule="nonzero"/></g><g clip-path="url(#5db3b35509)"><path fill="#ffa31a" d="M 99.175781 135.039062 L 105.730469 114.148438 L 88.203125 58.285156 L 64.125 135.039062 L 99.175781 135.039062 " fill-opacity="1" fill-rule="nonzero"/></g><g clip-path="url(#c2f68f505d)"><path fill="#153b70" d="M 149.328125 135.039062 L 124.367188 55.46875 L 89.320312 55.46875 L 114.277344 135.039062 L 149.328125 135.039062 " fill-opacity="1" fill-rule="nonzero"/></g></svg>